<svg id="Layer_1" data-name="Layer 1" xmlns="http://www.w3.org/2000/svg" viewBox="0 0 1282 722"><defs><style>.cls-1,.cls-10,.cls-2,.cls-3,.cls-4,.cls-5,.cls-6,.cls-7,.cls-8,.cls-9{fill:none;stroke:#000;stroke-linecap:round;stroke-linejoin:round;}.cls-10,.cls-2{stroke-width:3px;}.cls-3,.cls-4,.cls-5,.cls-6,.cls-7,.cls-8,.cls-9{stroke-width:2px;}.cls-3{stroke-dasharray:7 5 20 5;}.cls-5{stroke-dasharray:7.06 5.04;}.cls-6{stroke-dasharray:20.16 5.04 7.06 5.04;}.cls-7{stroke-dasharray:19.98 5;}.cls-8{stroke-dasharray:6.99 5 19.98 5;}.cls-9{stroke-dasharray:20 5 7 5;}.cls-10{opacity:0;}</style></defs><path class="cls-1" d="M1035,720.5c0-18.5-3.6-36.4-9-54-3.1-10.3-5.7-20.6-5-31.5s3.3-19.3,10.9-26.6a152.5,152.5,0,0,0,14-15c6.5-7.9,9.4-17.2,10.2-27.4.5-6.5,1.5-13,2.4-19.5.7-4.8,1.7-9.7,2.5-14.5,2.3-15.1,10.8-26.4,22-36,8.2-7,17.2-13.4,22.4-23.1,3.1-5.9,5.1-12.5,7-18.9,4.4-14.6,13.5-24.9,27.1-31.5,8.6-4.2,17.2-8.4,25.5-13.1a28.3,28.3,0,0,0,13.9-31.4c-4.2-16.3-9-32.4-14-48.5-2.6-8.2-7.4-11.6-13.9-10.4a26,26,0,0,0-8.5,3.5c-10.4,6-20.1,13.2-31.5,17.4-7.9,3-15.9,5.1-24.5,5.1a142.4,142.4,0,0,0-18.5,1c-10.2,1.1-17.9,6.7-24.6,14.3s-13.2,19-18.9,29.1-15.5,15.8-28,15.6c-10.5-.1-20.9-.1-31-3.1-8.6-2.6-16.5-6.5-18.2-16-1-5.4.8-11.3,1.2-17,.7-10.7,6.4-19.6,10.6-29,7.8-17.2,9.7-35,6.9-53.5-1-6.7-1.8-13.5-3.6-20-2.6-9.3-8.9-13.6-18.4-13.5s-17.7,1-26.5.9a126.6,126.6,0,0,1-48.5-9.8c-20.7-8.7-40.4-7-58.5,6.9-9.1,7.1-18,14.3-27,21.5-12.8,10.2-28.2,14.9-43.5,19.4a76,76,0,0,1-14,3c-14.5,1.6-26.6-4.2-38.1-12.3-7.5-5.3-15.2-10.6-23.5-14.4-14.6-6.8-29.1-2.9-42.9,3.4-9.8,4.4-18,11.2-25.5,18.9-13.1,13.2-28.2,23.1-46.5,26.8-9.1,1.8-18.7,1.6-28,1.6-6.8-.1-13.1,1.4-19.5,3.1-9.4,2.6-18.5,6.2-28,7.8s-17.8-.1-26.5-2.2c-13.8-3.4-27.6-7-41.5-9.4-11.9-2-23.8-3.3-36-1.4-6.2.9-12.7-.3-19-.8s-11.7-2.1-17.5-1.9c-14.6.5-25.4-4.8-33.1-17.5-5.9-9.6-12.3-19.1-20.9-26.6a247.3,247.3,0,0,0-44.6-31.4c-12.5-6.8-20.9-3.4-32.9,6.8-6.5,5.5-12.8,11.5-20.1,15.4-14.8,7.7-30.1,14.6-45.5,21-5.3,2.2-11.5,2.5-17.4,3.1a73,73,0,0,1-15.5,0c-10.6-1.1-18.6,3-25.5,10.6s-13.2,15.7-15.5,26c-1.6,7.5.7,14.7,2,22,2.8,15.8,6.1,31.6,8.3,47.5,1.3,8.9-.2,17.9-3.2,26.5S63.3,434.7,64,444c1.6,20.2,7.3,38.6,21.9,53.6,9.5,9.7,20.1,17.4,33.6,19.7,6.9,1.2,14,.6,21,.7,5.3.1,10.7,0,16,0,13.7,0,27.3-1,40.5-5s25.2-13.5,25-32c-.2-9.5-.8-19-1-28.5-.2-19.3,8.8-30,24.5-36,12.9-4.8,25.9-9.6,39-13.9s20,3.6,20.3,14.9c.2,6.8-1.4,13.8-2.9,20.5-2.1,9.4-5.1,18.6-7.3,28-3,12.6-8.9,23.8-15.1,35-8.1,14.7-2.6,26,12.5,31.9,3.5,1.4,7.4,2,11,3.1,15.4,4.6,28.6,13.5,42,22,5,3.1,10.2,5.9,15.5,8.5,15.2,7.4,27.9,2.9,39.6-7.9C405,554,410.6,550,416,546c8.2-5.9,17.5-7.3,27-4.9,14.5,3.6,28,.8,39.9-7.3s27.8-14.9,43.1-19.4c7.2-2.1,14.1-5.3,21-8.5,12.7-5.8,18-16.7,18.9-29.9a93.9,93.9,0,0,1,7.7-29.5c4.9-11.6,14.8-14.9,26.4-13.4,9.4,1.2,18.6,3.2,27,7.9s12.6,13.6,15,23,.1,16.1-1.5,24c-1.2,5.2-1.9,10.5.1,15.5,3.2,8.2,10,12.4,18.4,13.4s17.4,1.2,26,2.2,18.2,5.2,26.5,9.8a39.2,39.2,0,0,0,12.5,4.9c8.2,1.4,14-3.6,17.8-9.9s8.1-15.8,11.6-23.9,5.9-17,12.2-23.4a96,96,0,0,1,17.5-13.5c10.2-6,20.6-11.9,31.5-16.4,15.3-6.3,24.4-3.9,32.9,11.8L855,472c5.9,10.5,15.9,14.8,27,15.8,14,1.4,28,1.5,42,2.2,9.4.4,18.9,1.7,27.5,5.6,17.6,8.1,27.6,26.7,22,47.4-2.4,9-4.9,18-6.9,27-1.7,7.4-2.8,15-4.1,22.5-2,12.4-8,23-14.5,33.5s-12.8,19.3-16.5,30.5c-3.1,9.1-5,18.1-3.8,28,1.6,12.6.9,25.4-9.7,35-.6.5-1.7.5-2.5.8" transform="translate(2)"/><path class="cls-1" d="M43.5,408.5c.6,11.1.2,22.2,3.5,33,4.4,14.6,8.1,29.4,15.4,43a123.1,123.1,0,0,0,26.5,33.1c6.1,5.5,12.2,11,20.1,13.3a59.2,59.2,0,0,0,23,1.4c10.1-1.2,20.3-.4,30.5-.3s19.3.7,29,1c12.7.4,25.4.1,38,1.2,9.7.9,18.5,5.4,27,10.3a102.6,102.6,0,0,0,38,12.5,108.3,108.3,0,0,1,30,8.5c13.1,5.9,25.7,12.7,39.1,17.8,9.1,3.4,19,5.6,28.9,2.6,7.3-2.2,13.2-7,18.5-12.4s10.6-9.7,18-10.9a33.6,33.6,0,0,1,10-.5c18.8,1.8,36-3.4,50.9-14.3,20.1-14.6,42.9-21.8,66.6-26.7,8.9-1.9,18-4,27-3.8,20.3.4,38,7.7,51,24.2,5.4,6.8,10.9,13.5,15.9,20.5,3.5,4.9,4.5,10.2,3.8,16.5-1.8,16.4.9,32,14.4,43.4,9.2,7.9,19.8,8.6,26.9-.9,4.4-5.8,3.2-15.2-3-22s-10.9-10.4-15.9-16.1c-2.8-3.1-5.4-7-6.4-11-1.7-7,5.3-14.1,13.8-13.7,4.7.3,9.5,2.5,14,4.4a43.6,43.6,0,0,1,9,5.9c11.3,9.4,20.9,5.8,30.9-2.1,5.6-4.3,9.5-10.1,12.6-16.4,5.3-10.8,10.5-21.7,16-32.5,7.1-13.7,18-23.9,31-32q6.6-4,13.5-7.5c7.2-3.6,12.8-2.6,18.5,3s9,11.7,16,14.4a46.4,46.4,0,0,0,13.5,3.5c12,.7,24.1,0,36,1.3s27-.6,40.1,4.6,23.6,17.4,19.8,35.2-7.3,35.8-12.1,53.4c-3.3,12.1-9.2,23.3-15.7,34.1-7.9,13.1-16.5,25.8-21,40.5a175.6,175.6,0,0,0-5,25c-.9,6.7-3.9,12.2-7.6,17.5-2.5,3.3-5.3,6.3-8,9.5" transform="translate(2)"/><path class="cls-2" d="M603.5,2c-3.3,6.5-6.6,13-10,19.5-6.8,12.9-13.4,25.8-20.6,38.5s-18.4,22.9-33.8,27.2c-9.2,2.6-18.3,5.9-25.7,12.7-9.1,8.6-11.3,21.4-4.4,33.6a127,127,0,0,0,8.1,12.5c5.8,7.7,5.2,16.7,4.8,25.5s-1.5,15.3-1.8,23-.4,17.7,0,26.5c.6,13.7,6.4,24.5,19.4,30.5,7.4,3.4,14.5,1.2,20.9-2.2a80.2,80.2,0,0,1,28.1-8.1,33.8,33.8,0,0,1,14.4,2c5.9,2.1,7.1,8.7,2.5,13.7-8.1,9.2-17.9,16.2-29.9,19.6-7.1,2-14.2,1-21-.7s-11.7,1-17.5,2.1c-14.5,2.6-25.4,11.6-36.5,20.1s-23.2,14.3-37,15.8c-5.6.6-11.3-.9-17-1.3-18.4-1.3-35.9-7.5-54-10.4-7.2-1.1-14.7-.7-22-1.1a117.4,117.4,0,0,1-48.9-13.6c-4-2.2-7.4-5.6-10.6-8.9-21.9-23.3-46.4-43.8-71-64-7.3-6-15.6-10.8-25-11.2-6.9-.3-14,2.3-21,3.8-3.2.6-6.3,2-9.5,2.9-7,2-13.1-.3-19-3.9s-12.2-5.8-19-3a29.1,29.1,0,0,0-8.4,5.5c-3.2,3.1-3.5,8.3,2.4,9.9s8.9,3.2,13.5,4.5c15.1,4.1,14.7,14.7,7,23.5s-15.9,12.4-26,14.5-18.9-6.6-18.9-16.5A134.3,134.3,0,0,1,117,229c.5-4.2-1.3-7-5-8.5-5.3-2.1-10.6-4.1-16-6-10-3.6-19.4-8.7-26.8-16.2C63.4,192.4,59.1,185,54.6,178c-6.3-9.6-11.9-19.4-18.2-29-3.8-5.9-8.7-11.1-15.4-14s-14.8-2.3-21,3.5" transform="translate(2)"/><path class="cls-3" d="M430,1.5c2.3,8.7,5.2,17.2,6.9,26,2.2,11.6,7.6,20.6,17.6,27s20,9,31,10.5c8.2,1,15.4-2.1,22-6.5s11-8.1,18-8.9a17.9,17.9,0,0,1,8.9,1.1c3.4,1.5,3.5,4.5,1.1,7.3-5.5,6.5-13.3,9-21,10.9-16.2,3.8-26.3,13.4-31.6,29.1-3.5,10.2-6.2,21-14.4,29-3.1,2.9-6.2,5.8-9.5,8.5s-6.9,4.4-9.9,7.1c-5.5,4.8-5.8,9.2-.5,14.3a91.5,91.5,0,0,0,15.5,11.5c7.8,4.8,16.8,7.5,23.5,14.5s9,14.2,10.3,22.6a220.5,220.5,0,0,1,1.9,50c-1.8,26.6-22.4,46.2-50.3,43.5-17.3-1.7-33.8-6.3-50.1-12.3-8.4-3.2-17.5-4.6-26.4-6.7s-14.7-4.3-20.4-9.6a119.5,119.5,0,0,1-15-16c-4.4-5.8-3.7-9.8,1.4-14.9s10.9-11.1,14-18.5,4.1-17.6-1.5-26c-3.4-4.9-7.3-5.6-11.5-1.5-8.4,8.3-13,18.8-16,30-.1.3.1.7,0,1-3.2,13.1-6.7,14.9-19.5,10s-24.8-12.8-35-22.5a340.3,340.3,0,0,1-34.1-37.9c-4.9-6.4-11.9-10.7-19.9-10.8-6,0-12.3,2.1-17.9,4.3-9.3,3.8-18.4,5.5-28.1,2.4-15.5-5-28.7.7-41.5,8.5a135.7,135.7,0,0,1-14.5,7.9c-10.9,4.8-21.2,3.3-31-3.4-12.3-8.3-21.6-19.3-29-32-5.2-8.8-10.2-17.7-15.5-26.5-7.9-13.1-22.9-14.7-36-8.5l-2.5,1" transform="translate(2)"/><path class="cls-2" d="M655.5,720c-5.1-6.5-5.4-13.9-3.9-21.5s4.3-17.3,5.8-26,1.3-16.9-4.3-24.6-11.4-16.7-16.5-25.4c-6.5-11-9.9-23-11.6-35.5-1.3-8.7-2.3-17.6-6.5-25.5S605,547.6,596,544.1c-12.5-4.8-25.6-7.5-39-6-18.8,2.2-37,6.9-53.5,16.9s-34.3,20.1-51.5,29.9a58.3,58.3,0,0,1-10,4.1c-7.8,2.8-14.1,8-19.9,13.6s-15.3,8.3-24.1,5.3c-22.1-7.4-44.2-14.8-65.9-23-15.5-5.9-30.8-11.3-47.6-11-10,.2-20-.9-30-.7a34.5,34.5,0,0,0-12.5,2.9c-8,3.3-9.8,10.9-10.9,18.4-1.5,10-3.4,19.7-8.6,28.5s-11.3,15.3-21,17.3c-3.8.8-8.3-.1-11.9-1.5-7.8-2.9-15.2-6.5-21.2-12.7s-5.9-13.7-1.8-20,8.4-10.3,13-15,7.9-7.4,11.9-11.1c8-7.4,9.3-15.6-3.1-22.3-19.8-10.9-40.8-14.3-62.9-6.8-5.6,1.8-11.6,2.2-17.5,3.1s-11.8-2.4-15.4-7.1Q73.9,522,56.1,496.4c-6.7-9.6-12.2-20.1-18.7-29.8-4.4-6.7-10.4-12-18.9-11.9-6.3,0-12.7,1.5-19,2.3" transform="translate(2)"/><path class="cls-4" d="M796,1.5c-.5,3.3-.8,6.6-1.3,9.9" transform="translate(2)"/><path class="cls-5" d="M794,16.4c-.2,1-.4,2.1-.5,3.1a49.8,49.8,0,0,0-1,6.4" transform="translate(2)"/><path class="cls-6" d="M792.4,28.4c-.5,11.7,3,22.3,12.6,31.1,3.7,3.5,7,7.4,10.5,11,6.5,6.5,7.3,15.1,8.4,23.5a108.6,108.6,0,0,1,1.1,14c.1,9.1-4.8,13.4-14,14.1a71,71,0,0,0-33.5,11.4c-4.6,3.1-5.9,7.8-6.5,13-1.9,14.5,1.5,28.7,2.8,43,.9,11.5-3,22.1-10.8,31s-16.8,15.2-26.5,20.9c-6.2,3.6-13,3.9-20,2.1a77.8,77.8,0,0,0-13.5-2.3,8.1,8.1,0,0,0-5.8,3c-.6.8.7,3.8,1.9,5.3,5,6.7,12.6,7.9,19.8,6.3s15,.5,22.1,2.4c13.6,3.6,25.9,1.2,37.5-6.2s19.9-13.5,30-20,22.5-10.4,35-12.1a216.4,216.4,0,0,0,22.5-4,35.4,35.4,0,0,0,18.1-10.4,44.4,44.4,0,0,1,6.9-6c8.1-5.6,12.6-4.7,18,3.5,1.3,1.9,2.2,4.1,3.5,6,5.9,7.8,14.4,9.8,23.5,8.9,10.6-1.1,21.1-2.5,30.5-8.3,7.3-4.5,11.8-10.4,11.4-19.1-.2-6.3.4-13.2-1.7-18.9-4-10.9-13.5-15.7-24.7-17.7s-21.8-.1-32.5,2.1c-12.5,2.6-21.6-8.5-18.2-21,2.4-8.4,8.2-14.1,13.3-20.4,6.5-8.1,14-15.4,20.9-23.1,11.4-12.7,26.1-20.2,41.5-26.5s26.7-15.3,30.9-31.5a188.6,188.6,0,0,0,3.4-19.7" transform="translate(2)"/><path class="cls-4" d="M1011.2,11.3c.2-1.7.5-3.5.8-5.3s.7-3,1-4.5" transform="translate(2)"/><path class="cls-1" d="M1035,1.5c-.2,5.3-1.2,10.8-.3,16,1.3,7.8,8.8,11.7,16.8,11.1,14-.9,28-1.5,42-1.5a117.7,117.7,0,0,1,22,2.5c13.4,2.5,21,11.8,26,23.9,6.4,15.3,7.6,31.4,6.3,47.5-.8,10-5.5,19-17.3,20.4a30.3,30.3,0,0,1-12-1c-26.2-8.7-50.9-20.6-73-37.3-4.6-3.5-9.7-6.1-14.5-9.1-8.9-5.7-18.4-4.6-27.4-1.4-12.3,4.4-24.2,9.7-36.1,15-9.6,4.3-17.6,10.7-22.5,20.4-4.1,8.1-.5,16.9,5.5,20s10.6,5.5,16,8c13.8,6.3,26.2,14.6,32.3,29.1,3.2,7.6,4.3,16.2,6.2,24.4s2.9,16.6,5.7,24.4c3.5,9.8,12.1,13.3,21.8,14.1,16.4,1.3,32.2-2.7,48-6.5s28.8-13,41.1-23.4a51.9,51.9,0,0,1,10.9-7c8.2-4,15.3-1,21.4,4.5a173.3,173.3,0,0,1,15.5,15.4c9.2,10.3,19.3,19.8,26.1,32,4.1,7.3,8.1,14.7,13.1,21.4,9.6,12.9,23.1,18.9,38.9,18.4,11-.3,21.5-4,31-9.8" transform="translate(2)"/><path class="cls-4" d="M619,720.5c.4-1.1.7-2.2,1.1-3.3" transform="translate(2)"/><path class="cls-7" d="M621.6,712.4c1.1-3.5,2.2-6.9,3.4-10.4s2.7-7.2,4.1-10.8" transform="translate(2)"/><path class="cls-8" d="M630,688.9c1.4-3.6,2.7-7.2,3.9-10.9,2.8-8.7,1.5-17.5-2.5-25.4-5.9-11.4-12.5-22.5-18.9-33.6s-9.4-21.1-11.5-32.5c-3.9-22.4-22.3-31.7-41.5-32.5-29-1.2-53.5,9.9-76,27-12.9,9.7-23,21.8-32,35L429,649.5a30.4,30.4,0,0,1-4.5,5c-8.2,7.1-14.7,4.6-19.9-3-4-6-7.1-12.6-11.2-18.4-8.2-11.8-19.6-19.6-32.9-24.5-15.4-5.8-30.8-11.6-46.5-16.5-17.6-5.4-34.9-4.4-51.5,4.3-5,2.6-9.3,5.7-12,10.6-6.4,11.6-13.1,23.1-18.9,35.1-6.9,14.1-2.8,27.2,4.8,39.9,9.8,16.4,24.3,26.3,41.6,33,3.9,1.5,7.7,3.2,11.7,4.7" transform="translate(2)"/><path class="cls-4" d="M292,720.5a21.1,21.1,0,0,0,3.5-.2" transform="translate(2)"/><path class="cls-3" d="M863.5,720c8.2-10.5,12.8-22.5,15.6-35.5,3.8-17.6,11.6-33.8,22-48.4,18.2-25.8,28.3-55,35.7-85.1a46.4,46.4,0,0,0,1.4-17.5c-1.5-11.9-9.9-17.7-19.7-19.2-15.7-2.4-31.9-3.4-47.4.9-7.9,2.2-15.4,6.2-22.5,10.4-10.1,6-19.6,5.2-29.6.5a63,63,0,0,0-15-5c-10.4-1.6-17.7,3.5-23.6,11.8-7.3,10.4-11.4,22.2-14.8,34.1A161.2,161.2,0,0,1,745,612.5c-6.5,9.8-13.1,19.5-20.1,28.9s-7.4,16.9-4.5,26.6c1.7,5.9,3.4,12,3.4,18-.1,8.2-4.2,15.5-9.9,21.4-4.2,4.5-8.9,8.4-13.4,12.6" transform="translate(2)"/><path class="cls-1" d="M619.5,2c-1.7,3.5-3.2,7.1-5,10.5C607.4,26,600.4,39.6,592.9,53s-16,27.9-26.9,40c-3.8,4.2-8.1,7.9-12,12a80.4,80.4,0,0,0-8.4,10.1c-3.4,4.8-2.2,10.2-.6,15.4,2.9,9.1,6,18.2,5,28a63,63,0,0,1-2.1,11.5c-2.7,9.7-2.6,19.7-1.7,29.5,1.4,15.6,7.5,22.1,22.8,23.3,20.8,1.6,41.1-2,61-8.2,13.2-4.2,23.7-17.3,22.9-32.1-.8-13.3,3-24.4,11.5-34.6s10.4-22.7,13.7-34.9c2.1-8.1,4.7-16.1,7.4-24,4.3-12.3,14.1-19.1,25.5-24s21-8.9,31.5-13.5c14-6.2,20.2-23.4,13.4-37.5-2.1-4.4-3.5-9.5-8.4-12" transform="translate(2)"/><path class="cls-2" d="M1278,289.5c-9.4,4.1-19,7.6-29.5,7.5-12.5-.1-25,.1-37.5,0-7.5-.1-13.4,2.9-15.9,10s-3.5,14.3-5,21.5a30.8,30.8,0,0,0-1,9.5c.9,9.7,2.3,19.3,3.4,29s3.8,21.1,1.6,32-9.9,18.5-20.1,22.9c-5.3,2.3-11.1,3.6-16.5,5.6-16.7,6.2-27.6,18.1-33,35-5.9,18.5-18,32.2-32.9,44.1-9.6,7.5-14.9,17.9-16.5,29.9-1.4,10.1-2.4,20.3-3,30.5-1.1,16.4-6.1,30.9-17.5,43.1-6.9,7.2-12.4,15.4-15.2,25.4s-3.3,17.5-1.4,26.5l10.5,51.5,1.5,7" transform="translate(2)"/><path class="cls-1" d="M1278,307.5c-10.2,5.1-21.2,7.1-32.5,7.5-5.8.2-11.9-.2-17.5,1.2-10.6,2.5-17.8,9.7-19.7,20.3-1.5,8.1-1.2,16.7-.7,25a246.2,246.2,0,0,0,3.5,27,42.3,42.3,0,0,1-.6,17c-3.3,15-13.4,24.1-27,29.4-6.5,2.5-13.3,4.1-20,6.1-11,3.3-18.8,10.3-24,20.5s-9.5,20-15.2,29.4c-3.7,6.1-8.7,11.5-13.9,16.5-8.1,7.8-17,14.8-19.4,26.6a165.5,165.5,0,0,0-2.9,18.5c-1,10.8-.9,21.7-2.2,32.5-1.6,12.4-9.3,22-16.9,31.5s-15.1,19.6-17.3,32a67,67,0,0,0,.7,26,122.5,122.5,0,0,0,20.1,45.5" transform="translate(2)"/><path class="cls-3" d="M0,600.5c2.7,6.8,8.3,11.2,13.5,16,10.8,10,23.3,10.2,36.5,6.5,6.2-1.7,12.2-4.1,18.5-4.8S83,620.7,89,625.5c9,7.3,15.3,16.7,20.6,26.9a132.5,132.5,0,0,0,12.5,19c4.1,5.4,11.1,8.7,19.4,2.1,6-4.8,11.8-9.9,10.3-18.5-.7-4.3-3.3-8.4-5.3-12.5-3.1-6.1-7.2-11.7-9.3-18.1-3.5-10.7.1-20.9,5.4-30.4,2.2-4,5.4-7.5,7.8-11.5s4.5-7.1,1.1-11-7.2-3.2-11-1.9c-6.2,2.2-12.2,5.2-18.5,7.3a131.4,131.4,0,0,1-21,5.9c-7.9,1.5-13.6-3.1-17.4-9.4s-7.6-12.3-9.4-19c-6.8-24.9-22-44.9-37.3-64.8a49.8,49.8,0,0,0-10.5-10c-8.3-6.1-17.5-5.9-26.9-2.6" transform="translate(2)"/><path class="cls-3" d="M228,1.5c-1.5,6-3.7,11.9-4.3,18-1,8.7,3.1,15.7,10.3,20.4s13.2,8,20,11.6c12.2,6.3,22.9,14.2,30.7,25.9,3.1,4.8,8.2,8.4,12.3,12.6s7.1,7.2,10.5,11,3.5,5,1.5,8-5.9,3.7-9,2.9a190,190,0,0,1-22-7.5c-9-3.9-18.4-5.3-28-6.5-12.5-1.6-24,2.2-35.5,5.7s-24.6,2.9-36.5-2.6c-15.6-7.1-29.7-16.4-41.5-29a139.7,139.7,0,0,0-12-11c-9.2-7.5-19.9-7.8-31-6.5-16.3,1.9-32.3,7.1-49,5.5-7.7-.8-15.3-1.8-23-2.5S6.8,56.5-.5,56" transform="translate(2)"/><path class="cls-3" d="M1278.2,353.5c-.9,3-1.3,6.3-2.8,9-4.9,9-11.7,15.5-22.4,17.6-8.2,1.6-13,6.8-16.2,14.8-6,14.9-13.2,29.3-24.4,41a70.3,70.3,0,0,1-38.9,20.9c-16.7,3.2-26.1,13.3-31,28.7-1.7,5.3-3.1,10.8-5.1,16-2.9,7.6-6.7,14.8-13.9,19.5-11.3,7.3-16.2,18.5-18.4,31-1.4,7.9-2.2,16-3.1,24a82.8,82.8,0,0,1-15.5,41c-5.5,7.6-11.2,15-15.9,23.1-11,18.9-6.9,39.2,7.5,54.4,5.3,5.6,11.4,10.5,16.8,16.1,3,3,5.4,6.6,8.1,9.9" transform="translate(2)"/><path class="cls-1" d="M1278,405.5c-10,5.3-20.3,10.1-29.9,16.1s-16.8,17.3-24,27c-9.8,13.1-20.9,24.2-36.6,30-2.7,1-5,2.8-7.5,4.4-6,3.8-7.1,9.5-1.4,14.9s11.5,9.9,17.4,14.6c7.5,5.8,8.2,10.8,2,18s-15.4,12.2-24,17a104.7,104.7,0,0,1-34,12.4c-12.1,2.2-19.3,9.9-23.4,20.6a410.9,410.9,0,0,1-29.2,60.5,43.5,43.5,0,0,0-6.2,19c-.5,7.7,2.7,14.9,7.4,21,10.1,13.1,20.6,26,30.9,39" transform="translate(2)"/><path class="cls-1" d="M249,1.5c-4.8,12.8-.1,18.3,12,24.9,8.9,4.9,18.2,8.8,27,13.7s15.7,13.6,21.5,22.4,9.3,14.9,15.2,21.4c8,8.7,17.9,14.6,30.3,16.2s22.8,4.6,34.5,3.8,24.2-4,33.5-13.4c7.7-7.7,6.9-10.8,3.3-18.9-5.1-11.4-9.9-22.7-11.9-35.1a165.3,165.3,0,0,0-4.6-22c-1.4-4.8-3.3-9.8-8.3-12.5" transform="translate(2)"/><path class="cls-1" d="M589.5,720c-5.2-6.2-10.4-12.3-15.5-18.5-7.6-9.2-17.3-11.3-28-7.4-12.8,4.8-26.1,5.6-39.5,5.9-8.8.1-17.7.7-26.5-.2s-18-3.4-27-5.3L428.5,689c-4.7-1-9.3-2.3-14-2.9-8.3-1.1-15.6,2.2-23,5.4-20.8,8.9-41.6,17.8-62.5,26.4-3.6,1.5-7.7,1.6-11.5,2.4" transform="translate(2)"/><path class="cls-2" d="M833.5,2c-.3.2-.9.3-1,.5-3.7,17.6-5.7,34.9,2.8,52.1,5.7,11.2,10,23.2,14.6,34.9a35.5,35.5,0,0,0,11.2,14.9c4.6,3.7,10.4,3.3,15.3,1,12.2-5.7,24.4-11.4,36-18.1,7.8-4.4,14.5-10.8,22.2-15.7,10.9-7,22.1-13.7,33.4-20,15.7-8.8,23.8-22.4,27-39.6.6-3.5,1.3-7,2-10.5" transform="translate(2)"/><path class="cls-1" d="M214.5,2a12.6,12.6,0,0,0-2,2c-6.8,12.3-14.1,24.4-17,38.5-.8,4-1.4,8-2,12-1.9,11.9-9.3,11.7-17,9.9S160.6,56.6,154,50.5s-14.3-13.2-22.1-18.9c-9.3-6.6-19.8-9.4-31.4-6.7s-23.3,5.3-35,7.5C58.7,33.7,51.8,34.3,45,35c-10.8,1.1-21.7,2-32.5,3l-13,1" transform="translate(2)"/><path class="cls-1" d="M200.5,2c-5.3,4.8-10.2,10.4-16.1,14.3-11.3,7.5-23.6,7.9-35.9,2.2-6.5-3-13.1-5.8-19.5-9C116.5,3,103.8,3.3,90.5,6.4s-25.3,5.2-38,7.5c-3.1.6-6.3.1-9.5.1-13.9,0-27.6,1.3-41,5-.7.2-1.3,1-2,1.5" transform="translate(2)"/><path class="cls-1" d="M870.5,2c7.1,8,12,16.9,8.4,28-1.2,3.4-3.7,6.5-5.9,9.5s-6.9,7.5-8.1,13c-1.7,8.2.8,15.5,7.6,20,4.3,2.8,9,1.7,13.5,1,16.4-2.8,31-10.2,45.5-18,9.5-5.1,19.4-9.4,28.4-15.1C973.1,32,979.4,18.8,983,4c.2-.7,1-1.3,1.5-2" transform="translate(2)"/><path class="cls-2" d="M297.5,2c-4.6,3.7-6.1,8.4-3.4,12.9A167.6,167.6,0,0,0,305,30.5c7.1,9.5,14.6,18.8,21.4,28.6S339.1,75,349.5,77.4s21.4,2.7,31.5-2A18.4,18.4,0,0,0,391.9,59c.7-16.3-1-32.4-11.5-45.9C377.3,9,373.2,5.7,369.5,2" transform="translate(2)"/><path class="cls-1" d="M-.5,283c6-.2,12.1.2,18-.6,10.5-1.4,17.9-8.4,24.4-16,4.9-5.6,9-12,13.6-17.9C64.4,237,63.3,225.1,57,213s-12-23.8-18.6-35.4a99.2,99.2,0,0,0-12.5-17C18.3,152,5.7,152.9,0,163.5" transform="translate(2)"/><path class="cls-1" d="M94.5,720c1.5-11.1,2.9-22.4.4-33.5-3.2-13.8-15-25.3-28.4-27.3-8.4-1.2-15.8,3.3-22.5,8.3s-12.6,14.8-18.4,22.6c-3.5,4.6-7.2,8.6-12.6,10.9s-9.3,1.1-13-3.5" transform="translate(2)"/><path class="cls-1" d="M491.5,720.3c-4.2-.8-8.4-1.3-12.5-2.3a192.5,192.5,0,0,0-53.5-6.2c-10,.2-20-1.6-30-1.7-12.8-.1-24.6,4.5-36,9.9a12,12,0,0,1-2,.3" transform="translate(2)"/><path class="cls-2" d="M244.5,720c-6.3-8.5-12.4-17.2-19.1-25.4a118.1,118.1,0,0,0-15-15c-5.8-4.9-12.8-5.6-19.9-3-9.6,3.4-18.6,8.2-25.4,15.9s-9.7,16.6-3.6,27.5" transform="translate(2)"/><path class="cls-1" d="M455,1.5c2.2,6.2,4.4,12.3,6.5,18.5,4.5,13.3,15.3,19.9,29,15.9a63.3,63.3,0,0,0,32.6-21.4,23.9,23.9,0,0,0,4.9-13" transform="translate(2)"/><path class="cls-1" d="M1278.2,590.5a34.2,34.2,0,0,1-1.7,4,85.3,85.3,0,0,0-10.7,31c-2.4,16.9,2.1,32.2,8.1,47.5,1.8,4.7,4.8,9.1,4.3,14.5" transform="translate(2)"/><path class="cls-1" d="M896.5,2c3.3,4.5,6.8,8.9,10,13.5,1.8,2.7,3.2,5.8,5,8.5,5.5,8,14.4,12.8,27,9.6,15.1-3.7,24.1-13.3,29.5-27.1.7-1.6,1.7-3,2.5-4.5" transform="translate(2)"/><path class="cls-1" d="M1278.2,58.5c-1.4,4.2-3,8.3-4.2,12.5-4.3,15.6-4.1,30.7,4.5,45,.2.4-.2,1-.2,1.5" transform="translate(2)"/><path class="cls-1" d="M0,631.5c2.3,4.2,4.9,8.2,6.9,12.5A24.9,24.9,0,0,1,7,665c-2.3,5.2-4.7,10.3-7,15.5" transform="translate(2)"/><path class="cls-1" d="M42.5,411C33,422.4,20,427.8,6.5,432.5c-2.2.8-4.3,2-6.5,3" transform="translate(2)"/><path class="cls-1" d="M744.5,720.3c-.8,0-2,.5-2.5.1a6.1,6.1,0,0,0-8,0c-.5.4-1.7-.1-2.5-.1" transform="translate(2)"/><path class="cls-1" d="M209,720.5c-.7-1-1.1-2.3-2-2.9a26.2,26.2,0,0,0-4.5-2.1l-1.5,5" transform="translate(2)"/><path class="cls-1" d="M543.5,568c-5.8,1-11.8,1.5-17.5,3.1-27.2,7.6-46.7,24.3-58,50.4-5.5,12.5-7.1,25.5-7.1,39,0,10.6,7.2,17.8,16.1,20.6,11.2,3.5,22.2,1.6,33-1.2,17.9-4.7,34.7-11.6,49-23.8,6.9-5.9,14.1-11.4,16.4-20.6a65.3,65.3,0,0,0,1.5-14c.2-10.7.6-21.4-.1-32s-10.9-19.1-22.3-20.5L544,568" transform="translate(2)"/><path class="cls-3" d="M732.5,79c-12.6,4-21.3,12.4-28.1,23.5-4.7,7.7-3.1,17.2,7.2,21.8a79.8,79.8,0,0,0,23.4,6.4,35.5,35.5,0,0,0,21.5-4.3c5.6-3.2,7.4-8.9,6.4-14.9C760.6,97.8,753.7,87,741,80.6c-2.4-1.2-5.3-1.1-8-1.6" transform="translate(2)"/><path class="cls-1" d="M295.5,603a53,53,0,0,0-27,12.5c-12.1,10.6-21,23.3-22.2,39.5-.9,11.6,4.1,21.7,13.2,29.5a117.4,117.4,0,0,0,33.1,19.8,52.4,52.4,0,0,0,33.9,1.8c15.8-4.3,30.4-10.9,42.8-21.3,14.3-11.9,13.1-19,9.2-35.3s-15.6-27-31-32.9c-13-4.9-25.5-11.3-39.5-13-4-.6-8-.4-12-.6" transform="translate(2)"/><path class="cls-1" d="M95.5,81c-6.4,1.9-12.9,3.5-18.5,7.5-10.5,7.4-16.5,17.6-17.8,30-.9,8,1.5,16,5.4,22.9,7.1,12.5,17.9,20.5,31.9,24.1,6.3,1.7,12.1-.6,17.4-3.1a107.4,107.4,0,0,0,32.2-23.8c6.7-7.2,5.9-14.7,2.2-22-5.4-10.7-13.5-19.4-22.8-27.1S106.9,80.1,96,81" transform="translate(2)"/><path class="cls-1" d="M101.5,114a16.4,16.4,0,0,0-11,10c-3.2,8.5,3,16.3,11.5,16.5a16.6,16.6,0,0,0,15-10A11.6,11.6,0,0,0,106,114h-4" transform="translate(2)"/><path class="cls-1" d="M838,640.5a47.3,47.3,0,0,0-17.4,13.6c-5.9,7.3-6.2,13.5-1.1,21.4s12.2,8.6,16.9,0a36.4,36.4,0,0,0,4-11,120.3,120.3,0,0,0,1.5-18c0-2.2.3-5.5-3.4-6" transform="translate(2)"/><path class="cls-1" d="M273.5,135c-2.5,1.2-5.2,2-7.5,3.6a14.7,14.7,0,0,0-5.9,15.9c2.9,12.3,7.4,24,16.4,33.5s20.1,10.6,28.4-.5,11.9-20.9,7.5-33.5c-3.7-10.7-13-15.1-22.9-17.8-4.9-1.4-10.3-.9-15.5-1.2" transform="translate(2)"/><path class="cls-3" d="M1098.5,255c-9,1.7-18.1,3-27,5.1-15.1,3.4-29.8,8.2-41,19.9-7.4,7.7-9.3,17.3-8.4,27.5.6,6.8,5.3,11.1,12.9,11.4s16.7-.5,25-.9c3.3-.2,6.7-.7,10-1l21-2c11.6-1.3,18.9-8.6,24.5-18s7.1-18.7,6.5-29c-.4-7.7-6-12.6-15-13h-8" transform="translate(2)"/><path class="cls-1" d="M709.5,154c-9.7,2.1-16.8,7.6-18.3,17.5s.5,19.8,8.8,27c10.1,8.7,21.7,12.5,35,9.5s18.3-13.2,16-25a64.2,64.2,0,0,1-1-7.5c-.7-9.8-7.5-18.5-21-20.4-6.3-.9-12.7-.8-19-1.1" transform="translate(2)"/><path class="cls-2" d="M1139.5,217c-10.5,1.9-19.1,8-28.4,12.6-12,5.9-24.9,8.1-37.6,11.4-10.6,2.7-21.3,5-32,7.5s-20.4,4.3-30.5,7.1-15.2,10-18,19.4-3.2,20.9-4.1,31.5-2.5,18.3-3.3,27.5c-1.1,12-2.4,24,5.9,34.5,5.8,7.5,13.4,9,20.4,2.9a139.4,139.4,0,0,0,16.5-17c12.2-14.7,27.2-22.4,46.6-22.7,12.1-.1,24.4-.2,35.6-7a79.7,79.7,0,0,0,20.9-18.7c9-11.4,17.6-23,26.5-34.5a34.6,34.6,0,0,0,7.8-21.5,35.8,35.8,0,0,0-9.8-24.5c-4.3-4.9-9.4-8-16-8.5" transform="translate(2)"/><path class="cls-1" d="M428.5,209c-9.7,2.5-12.4,11.8-8.1,21.5,5.7,12.9,15.4,19.6,29.1,20.4,8.9.5,13.8-4.4,14.5-13.4,1-12.2-5.3-20.8-16-25.5a38.7,38.7,0,0,0-19-3" transform="translate(2)"/><path class="cls-1" d="M457.5,464c-6.8,2.2-9.2,7.8-10.4,14s2.6,10,7.4,11.5,9.5-.1,12-4A16.7,16.7,0,0,0,469,471c-1.4-4.7-5.1-7-11-7" transform="translate(2)"/><path class="cls-1" d="M413.5,183c-7.4,1.8-14.4,4.8-17.9,12.1a43.4,43.4,0,0,0-4.4,14.9c-.8,10.8-.9,21.8,3.5,31.9a67.6,67.6,0,0,0,9.9,16.5c8.4,10.7,18.2,19.8,32.4,22,6.9,1.1,13.7,3,21,1.7A24.7,24.7,0,0,0,476.5,269c7.5-13.8,8.9-28.6,6.7-44a49,49,0,0,0-5.2-16.5c-6-10.7-16.5-15.1-27-19.5s-24.2-6.6-37-6" transform="translate(2)"/><path class="cls-1" d="M12.5,499C3.2,501.2,1,509,1.2,516.5c.6,19.2-.6,38.8,7.8,57,3.2,7.2,7.1,13.6,13.4,18.6,10.5,8.3,28.3,3.4,32.6-10.1a42.8,42.8,0,0,0,1-23c-1.6-7.6-2.1-15.7-4.7-22.9a67.3,67.3,0,0,0-27.9-34.9c-2.8-1.8-6.9-1.5-10.4-2.2" transform="translate(2)"/><path class="cls-1" d="M806.5,169l-2,3.5c1.3.5,2.7,1.4,4,1.4s1.7-1.6,2.5-2.4l-4-2.5" transform="translate(2)"/><path class="cls-9" d="M891.5,531c-9.9,1.2-15.2,7.5-19.7,15.9-7.4,14.2-23.8,19.4-38.3,16.5-8.1-1.7-16-4.7-24-6.9-10.1-2.8-16.9,5.1-17.5,13.5s1.2,14.5,3.4,21.5a73.6,73.6,0,0,1,3.4,18.5c.4,11.2-4.6,20.4-13.3,27.5-5.2,4.2-10.7,7.9-16,12-8.3,6.4-8.9,11.7-1.5,18.9,5.5,5.3,11.6,9.9,16.9,15.2s11.9,12.5,17.6,18.9c6.9,7.9,14.9,14.3,25.5,15.3,7.1.6,13.6-2.6,19-7.3,7.5-6.5,11.8-15.3,13.8-24.5,4.5-21.1,13.8-39.9,24.7-58A94.2,94.2,0,0,0,899,586.5c1.2-13.4,2.7-26.8,10.4-38.5,1-1.4,1.2-3.3,1.6-5,1.5-6-.4-9-6.5-10L892,531" transform="translate(2)"/><path class="cls-2" d="M1092.5,51c-4.8,1.7-10,2.8-14.4,5.1-8.4,4.4-9.4,11.4-2.5,17.8a64.9,64.9,0,0,0,25.9,15c6.9,2.1,14,2.3,18.9-4s4.8-14.4,1.1-21.9-11.2-11.6-20-12c-2.8-.1-5.7,0-8.5,0" transform="translate(2)"/><path class="cls-1" d="M854,612.5a13.8,13.8,0,0,0-7.9,12.5,3.6,3.6,0,0,0,1,2.9,2.9,2.9,0,0,0,2.8-.5,53.5,53.5,0,0,0,7.5-9c1.4-2.5,1.3-5.5-2.9-5.9" transform="translate(2)"/><rect class="cls-10" x="3.5" y="1.5" width="1277" height="719"/></svg>